<svg xmlns="http://www.w3.org/2000/svg" xmlns:xlink="http://www.w3.org/1999/xlink" width="30px" height="30px" viewBox="0 0 30 31" version="1.1">
<g id="surface1">
<path style=" stroke:none;fill-rule:evenodd;fill:#555555;fill-opacity:1;" d="M 3.632812 0.96875 L 26.394531 0.96875 C 28.394531 0.96875 30.027344 2.5625 30.027344 4.503906 L 30.027344 26.503906 C 30.027344 28.449219 28.390625 30.039062 26.394531 30.039062 L 3.632812 30.039062 C 1.632812 30.039062 0 28.449219 0 26.503906 L 0 4.503906 C 0 2.558594 1.636719 0.96875 3.632812 0.96875 Z M 3.242188 12.9375 L 6.242188 12.9375 C 5.929688 13.824219 5.757812 14.769531 5.757812 15.757812 C 5.757812 20.628906 9.902344 24.574219 15.015625 24.574219 C 20.125 24.574219 24.269531 20.628906 24.269531 15.757812 C 24.269531 14.773438 24.097656 13.824219 23.785156 12.9375 L 26.785156 12.9375 L 26.785156 25.179688 C 26.785156 26.046875 26.054688 26.753906 25.167969 26.753906 L 4.738281 26.753906 C 3.914062 26.753906 3.242188 26.097656 3.242188 25.296875 Z M 21.84375 3.851562 L 25.328125 3.851562 C 26.117188 3.851562 26.761719 4.476562 26.761719 5.242188 L 26.761719 8.394531 C 26.761719 9.160156 26.117188 9.789062 25.328125 9.789062 L 21.84375 9.789062 C 21.054688 9.789062 20.410156 9.160156 20.410156 8.394531 L 20.410156 5.242188 C 20.410156 4.476562 21.054688 3.851562 21.84375 3.851562 Z M 15.023438 9.546875 C 18.339844 9.546875 21.03125 12.113281 21.03125 15.273438 C 21.03125 18.433594 18.339844 21 15.023438 21 C 11.703125 21 9.015625 18.433594 9.015625 15.273438 C 9.015625 12.113281 11.703125 9.546875 15.023438 9.546875 Z M 15.023438 9.546875 "/>
</g>
</svg>