<?xml version="1.0" standalone="no"?>
<!DOCTYPE svg PUBLIC "-//W3C//DTD SVG 20010904//EN"
 "http://www.w3.org/TR/2001/REC-SVG-20010904/DTD/svg10.dtd">
<svg version="1.0" xmlns="http://www.w3.org/2000/svg"
 width="1500.000000pt" height="1500.000000pt" viewBox="0 0 1500.000000 1500.000000"
 preserveAspectRatio="xMidYMid meet">

<g transform="translate(0.000000,1500.000000) scale(0.100000,-0.100000)"
fill="#000000" stroke="none">
<path d="M7364 13777 c-379 -391 -576 -796 -600 -1232 l-7 -117 -36 6 c-205
34 -483 33 -661 -4 -267 -54 -503 -167 -700 -335 -36 -30 -94 -69 -130 -87
-56 -28 -75 -33 -140 -33 -106 0 -181 38 -299 151 -94 89 -120 100 -146 60
-13 -20 -14 -39 -5 -135 30 -322 124 -543 310 -736 l77 -80 7 -93 c39 -581
367 -909 906 -905 226 1 355 47 476 167 76 76 128 167 122 214 -4 34 -29 45
-143 67 -173 32 -303 117 -339 222 -19 56 -20 154 -2 206 19 52 58 107 123
171 109 108 236 141 365 93 232 -85 413 -300 479 -567 19 -79 16 -278 -5 -360
-49 -182 -147 -384 -249 -514 l-30 -38 26 -237 c15 -130 69 -614 121 -1076 52
-462 138 -1220 191 -1685 52 -465 138 -1225 190 -1690 155 -1385 142 -1282
168 -1308 13 -12 39 -25 59 -28 29 -5 41 -1 67 22 l32 29 25 210 c13 116 67
593 120 1060 311 2774 460 4096 499 4425 13 118 25 229 25 246 0 20 -21 61
-65 129 -128 195 -204 384 -224 560 -41 357 186 730 502 827 135 41 250 7 363
-109 126 -127 161 -263 101 -386 -15 -30 -44 -70 -64 -88 -56 -48 -167 -96
-268 -115 -114 -21 -139 -32 -143 -67 -5 -43 62 -158 128 -222 115 -109 266
-159 485 -158 527 1 857 331 891 893 l7 105 82 85 c45 47 99 112 120 144 100
156 164 354 186 573 11 110 10 125 -5 148 -27 41 -52 31 -145 -58 -138 -133
-254 -178 -372 -144 -65 19 -123 55 -265 164 -260 199 -549 299 -899 310 -142
5 -279 -3 -396 -23 l-36 -6 -6 118 c-10 222 -72 446 -179 657 -108 212 -227
375 -417 570 -90 92 -120 117 -141 117 -22 0 -50 -24 -136 -113z"/>
<path d="M2428 10193 c-9 -10 -20 -30 -23 -46 -4 -15 -11 -30 -16 -33 -5 -3
-9 -15 -9 -28 0 -12 -3 -26 -7 -30 -19 -18 -82 -253 -114 -421 -30 -160 -37
-444 -14 -605 17 -124 68 -307 105 -379 47 -93 51 -85 -58 -120 -297 -96 -524
-231 -718 -425 -140 -141 -206 -231 -299 -411 -84 -162 -117 -202 -197 -246
-59 -32 -68 -34 -153 -33 -74 1 -106 7 -180 34 -112 40 -141 46 -160 30 -26
-22 -17 -61 36 -154 108 -190 282 -381 416 -457 98 -56 165 -87 221 -104 49
-15 65 -25 78 -49 38 -73 53 -97 109 -181 101 -149 242 -276 385 -347 274
-136 707 -56 957 177 38 35 81 81 96 102 85 123 116 355 50 380 -9 4 -55 -3
-102 -16 -199 -51 -341 -34 -439 53 -28 25 -77 128 -85 180 -10 65 31 222 79
297 76 122 206 173 383 150 188 -24 320 -90 461 -231 85 -84 102 -107 147
-200 28 -58 58 -130 67 -160 39 -142 46 -323 20 -517 -9 -65 -16 -128 -16
-140 -1 -23 18 -65 50 -114 26 -40 84 -136 107 -174 11 -19 52 -85 90 -145 39
-61 79 -128 91 -148 11 -20 29 -51 40 -68 55 -91 97 -158 148 -239 31 -49 61
-99 66 -110 6 -11 37 -63 70 -115 32 -52 83 -135 112 -183 29 -49 60 -99 68
-112 8 -13 35 -57 60 -97 25 -40 49 -80 55 -89 5 -9 28 -47 50 -84 22 -37 48
-79 57 -93 19 -30 26 -41 81 -133 21 -35 65 -107 98 -159 54 -86 121 -195 174
-284 11 -19 36 -60 55 -91 48 -78 68 -111 119 -197 24 -40 58 -95 76 -123 17
-27 45 -72 61 -98 16 -27 36 -59 44 -72 8 -13 33 -53 55 -90 22 -37 47 -78 55
-90 8 -12 33 -53 55 -90 22 -37 49 -82 60 -101 20 -34 70 -114 176 -284 32
-52 66 -108 74 -125 9 -16 34 -57 55 -90 21 -33 67 -107 102 -165 34 -58 67
-112 73 -121 22 -35 111 -182 130 -214 11 -19 52 -85 90 -146 39 -61 81 -130
95 -153 24 -41 98 -160 130 -211 8 -13 32 -52 53 -87 88 -148 128 -211 150
-235 29 -33 86 -31 126 3 26 21 31 33 31 68 0 22 -9 66 -21 96 -11 30 -40 116
-64 190 -25 74 -49 149 -55 165 -6 17 -48 143 -95 280 -46 138 -93 275 -103
305 -11 30 -29 87 -41 125 -12 39 -26 79 -30 90 -10 25 2 -11 -201 595 -93
278 -178 530 -189 560 -11 30 -40 118 -65 195 -66 202 -107 327 -117 350 -4
11 -15 43 -23 70 -8 28 -34 102 -56 165 -23 63 -46 130 -51 149 -21 67 -146
440 -160 476 -4 11 -13 38 -20 60 -6 22 -15 49 -19 60 -24 69 -33 95 -45 135
-8 25 -57 171 -110 325 -52 154 -103 303 -112 330 -134 413 -319 954 -332 969
-8 9 -51 39 -97 65 -171 101 -341 255 -428 390 -38 57 -55 91 -97 198 -4 12
-16 64 -25 115 -56 321 114 685 351 749 61 17 171 5 237 -25 31 -14 60 -26 64
-26 18 0 117 -85 140 -119 34 -51 55 -136 47 -186 -16 -108 -104 -224 -242
-318 -63 -43 -76 -57 -79 -83 -2 -25 4 -36 40 -64 108 -88 189 -120 319 -127
70 -4 103 -1 187 21 127 33 190 60 296 129 156 102 276 236 339 378 39 89 57
186 57 312 0 168 -23 282 -90 457 -12 30 -24 62 -27 71 -2 9 7 45 22 80 60
145 81 360 55 556 -13 93 -83 320 -114 365 -23 35 -58 47 -81 28 -7 -6 -21
-34 -30 -63 -29 -90 -85 -198 -128 -244 -91 -98 -195 -121 -372 -79 -210 49
-305 59 -469 53 -221 -9 -345 -35 -538 -113 -124 -49 -268 -123 -361 -185 -33
-22 -61 -38 -62 -37 -1 2 -21 39 -45 83 -84 156 -164 264 -297 401 -70 72
-279 236 -355 278 -24 13 -74 41 -113 62 -38 22 -95 50 -125 63 -30 13 -77 34
-105 46 -64 29 -192 76 -225 82 -16 3 -31 -2 -42 -14z"/>
<path d="M12505 10201 c-6 -4 -57 -25 -115 -46 -58 -21 -116 -43 -130 -50
-109 -53 -258 -130 -270 -139 -8 -6 -31 -20 -50 -30 -60 -33 -212 -150 -291
-224 -151 -141 -263 -290 -335 -444 -20 -43 -40 -78 -44 -78 -4 0 -38 20 -76
45 -92 61 -308 166 -419 205 -49 17 -142 43 -205 57 -101 23 -137 26 -295 26
-184 0 -310 -16 -460 -58 -85 -24 -194 -17 -261 18 -88 45 -155 136 -204 278
-32 92 -44 109 -75 109 -35 0 -52 -29 -94 -151 -54 -158 -71 -243 -78 -394 -6
-155 11 -274 58 -396 32 -84 33 -113 1 -174 -21 -42 -68 -216 -83 -308 -7 -46
-10 -122 -6 -190 13 -279 145 -488 417 -659 227 -142 476 -177 655 -91 74 35
93 47 131 84 55 53 46 82 -41 142 -195 133 -275 279 -234 425 26 93 89 159
199 209 94 43 116 48 200 48 73 0 92 -4 137 -28 103 -54 179 -145 238 -287 46
-111 60 -181 60 -310 0 -285 -127 -515 -400 -723 -60 -46 -135 -98 -166 -116
-30 -17 -66 -42 -78 -55 -19 -20 -103 -240 -127 -331 -3 -11 -9 -29 -14 -40
-4 -11 -24 -69 -44 -130 -19 -60 -55 -168 -80 -240 -24 -71 -53 -159 -64 -195
-12 -36 -35 -103 -52 -150 -17 -47 -38 -107 -47 -135 -8 -27 -19 -59 -23 -70
-12 -31 -90 -265 -105 -315 -11 -38 -164 -495 -195 -585 -23 -63 -221 -655
-251 -745 -17 -52 -35 -103 -40 -112 -5 -10 -9 -25 -9 -33 0 -8 -4 -23 -9 -33
-5 -9 -18 -46 -30 -82 -68 -207 -191 -570 -200 -591 -5 -13 -20 -58 -32 -99
-12 -41 -25 -82 -30 -90 -4 -8 -28 -78 -53 -155 -25 -77 -54 -165 -65 -195
-21 -61 -55 -161 -76 -230 -21 -66 -84 -252 -94 -275 -5 -11 -29 -83 -54 -160
-26 -77 -55 -165 -66 -195 -11 -30 -40 -118 -65 -195 -25 -77 -57 -171 -70
-210 -35 -98 -34 -137 5 -169 28 -24 52 -31 89 -26 27 3 71 54 123 143 29 49
59 99 67 112 8 13 31 49 50 80 19 32 44 72 55 90 11 18 38 63 60 100 22 37 47
77 55 90 30 47 106 169 130 210 81 137 107 180 120 200 8 13 31 48 50 80 35
56 49 79 104 172 16 26 43 71 61 98 18 28 52 82 74 120 23 39 68 113 101 165
33 52 63 102 67 110 4 8 28 48 53 88 25 40 50 81 55 90 18 31 100 163 115 187
8 13 33 53 55 90 22 37 48 79 57 94 9 14 23 36 30 48 44 74 90 151 101 168 6
11 35 56 62 100 57 92 61 98 112 184 21 35 45 74 53 87 8 12 39 62 68 111 29
48 84 140 123 203 39 63 90 147 114 185 116 191 156 256 203 330 29 44 59 94
67 110 8 17 39 68 69 115 30 47 80 129 113 183 32 54 65 109 73 122 16 24 71
115 105 171 11 18 44 73 73 121 29 48 80 131 113 183 34 52 65 104 70 115 5
11 27 47 48 80 22 33 58 92 81 130 l42 70 -18 115 c-22 135 -24 370 -5 470 40
204 135 376 273 491 239 201 541 253 730 126 62 -42 134 -189 152 -310 18
-121 -46 -245 -158 -304 -47 -25 -60 -28 -161 -28 -85 0 -131 6 -203 25 -109
29 -123 25 -135 -41 -9 -51 6 -160 30 -222 42 -109 142 -218 277 -302 132 -82
294 -132 458 -142 101 -6 232 7 283 27 141 56 237 119 340 224 44 45 105 120
135 166 69 105 75 115 101 166 19 36 28 43 82 59 34 10 75 25 92 33 122 61
120 60 205 124 145 108 265 257 367 451 36 69 27 117 -23 117 -18 0 -83 -22
-149 -51 -80 -35 -209 -37 -283 -5 -91 39 -131 81 -197 207 -128 249 -193 338
-359 496 -177 170 -410 303 -677 389 -46 14 -88 30 -92 34 -5 4 -2 21 7 38 21
41 60 150 90 252 60 207 67 568 15 815 -16 79 -40 177 -49 210 -52 174 -96
293 -117 318 -17 18 -53 23 -68 8z"/>
</g>
</svg>
